<?xml version="1.0" encoding="utf-8"?>
<!-- Generator: Adobe Illustrator 23.0.3, SVG Export Plug-In . SVG Version: 6.00 Build 0)  -->
<svg version="1.1" id="Layer_1" xmlns="http://www.w3.org/2000/svg" xmlns:xlink="http://www.w3.org/1999/xlink" x="0px" y="0px"
	 viewBox="0 0 64 64" style="enable-background:new 0 0 64 64;" xml:space="preserve">
<style type="text/css">
	.st0{fill:#006837;stroke:#006837;stroke-miterlimit:10;}
	.st1{fill:#666666;stroke:#666666;stroke-miterlimit:10;}
	.st2{fill:#999999;stroke:#999999;stroke-miterlimit:10;}
</style>
<rect x="-0.5" y="0.5" class="st0" width="64" height="63"/>
<path class="st1" d="M29,49.5H13c0-0.67,7.33-7.33,7.33-7.33"/>
<path class="st1" d="M29,49.5H13c0-0.67,7.33-7.33,7.33-7.33"/>
<path class="st1" d="M0.5,56.5c0-1,11-11,11-11l13,11H0.5z"/>
<path class="st1" d="M47,53.5H23c0-1,11-11,11-11"/>
<path class="st1" d="M64,56.5H40c0-1,11-11,11-11"/>
<path class="st2" d="M0.5,40.5c0-1.19,13.06-13.06,13.06-13.06L29,40.5H0.5z"/>
<path class="st2" d="M8.5,47.5C8.5,47.18,12,44,12,44l4.14,3.5l-3.64-1L8.5,47.5z"/>
<path class="st2" d="M24,38.5c0-0.75,8.25-8.25,8.25-8.25L42,38.5H24z"/>
<path class="st1" d="M52,52.5H36c0-0.67,7.33-7.33,7.33-7.33"/>
<path class="st2" d="M11.5,47.5"/>
<path class="st2" d="M-8,39.5c0-0.75,8.25-8.25,8.25-8.25L10,39.5H-8z"/>
<path class="st2" d="M38,39.5c0-1.21,13.29-13.29,13.29-13.29L67,39.5H38z"/>
</svg>
