<?xml version="1.0" encoding="utf-8"?>
<!-- Generator: Adobe Illustrator 23.0.3, SVG Export Plug-In . SVG Version: 6.00 Build 0)  -->
<svg version="1.1" id="Layer_1" xmlns="http://www.w3.org/2000/svg" xmlns:xlink="http://www.w3.org/1999/xlink" x="0px" y="0px"
	 viewBox="0 0 64 64" style="enable-background:new 0 0 64 64;" xml:space="preserve">
<style type="text/css">
	.st0{fill:#5D7B3F;}
	.st1{fill:#C69C6D;}
	.st2{fill:#7AC943;}
</style>
<rect class="st0" width="64" height="64"/>
<path class="st1" d="M18,40c0-1,0-5,0-5l1-4v-5v-3l1-1l0.59,10.85l1,6L18,40z"/>
<path class="st1" d="M8,56c0-1,0-5,0-5l1-4v-5v-3l1-1l0.59,10.85l1,6L8,56z"/>
<path class="st2" d="M10,40c1,0,2-1,2-1l2-2l2-5v-6l-3-3l-2.44-0.89l-4,1L4,26c0,0-1,2-1,3s1,6,1,6l2,3L10,40z"/>
<path class="st1" d="M25,38"/>
<path class="st1" d="M17,58c0-0.73,0-3.67,0-3.67l1-2.94v-3.67v-2.2l1-0.73l0.59,7.97l1,4.41L17,58z"/>
<path class="st2" d="M19,46.25c1,0,2-0.73,2-0.73l2-1.47l2-3.67v-4.41l-3-2.2l-2.44-0.65l-4,0.73L13,35.97c0,0-1,1.47-1,2.2
	s1,4.41,1,4.41l2,2.2L19,46.25z"/>
<path class="st1" d="M26,52c0-1,0-5,0-5l1-4v-5v-3l1-1l0.59,10.85l1,6L26,52z"/>
<path class="st2" d="M28,36c1,0,2-1,2-1l2-2l2-5v-6l-3-3l-2.44-0.89l-4,1L22,22c0,0-1,2-1,3s1,6,1,6l2,3L28,36z"/>
<path class="st1" d="M36,59c0-1,0-5,0-5l1-4v-5v-3l1-1l0.59,10.85l1,6L36,59z"/>
<path class="st2" d="M38,43c1,0,2-1,2-1l2-2l2-5v-6l-3-3l-2.44-0.89l-4,1L32,29c0,0-1,2-1,3s1,6,1,6l2,3L38,43z"/>
<path class="st2" d="M20,24c1,0,2-1,2-1l2-2l2-5v-6l-3-3l-2.44-0.89l-4,1L14,10c0,0-1,2-1,3s1,6,1,6l2,3L20,24z"/>
<path class="st1" d="M43,38c0-1,0-5,0-5l1-4v-5v-3l1-1l0.59,10.85l1,6L43,38z"/>
<path class="st2" d="M45,22c1,0,2-1,2-1l2-2l2-5V8l-3-3l-2.44-0.89l-4,1L39,8c0,0-1,2-1,3s1,6,1,6l2,3L45,22z"/>
</svg>
